<mxfile host="app.diagrams.net" agent="Mozilla/5.0 (Windows NT 10.0; Win64; x64) AppleWebKit/537.36 (KHTML, like Gecko) Chrome/131.0.0.0 Safari/537.36" version="26.0.11">
  <diagram name="第 1 页" id="1v8SXpoTdXkUn3yk3Jfs">
    <mxGraphModel dx="658" dy="430" grid="1" gridSize="10" guides="1" tooltips="1" connect="1" arrows="1" fold="1" page="1" pageScale="1" pageWidth="827" pageHeight="1169" math="1" shadow="0">
      <root>
        <mxCell id="0" />
        <mxCell id="1" parent="0" />
        <mxCell id="RzPd5jYL5kc_TmFL2Cuv-1" value="Layer 1" style="rounded=0;whiteSpace=wrap;html=1;fontSize=15;fillColor=#f8cecc;strokeColor=#b85450;" vertex="1" parent="1">
          <mxGeometry x="190" y="290" width="100" height="40" as="geometry" />
        </mxCell>
        <mxCell id="RzPd5jYL5kc_TmFL2Cuv-2" value="Layer 2" style="rounded=0;whiteSpace=wrap;html=1;fontSize=15;fillColor=#d5e8d4;strokeColor=#82b366;" vertex="1" parent="1">
          <mxGeometry x="450" y="290" width="100" height="40" as="geometry" />
        </mxCell>
        <mxCell id="RzPd5jYL5kc_TmFL2Cuv-4" value="" style="endArrow=classic;html=1;rounded=0;entryX=0;entryY=0.5;entryDx=0;entryDy=0;fontSize=15;" edge="1" parent="1" target="RzPd5jYL5kc_TmFL2Cuv-1">
          <mxGeometry width="50" height="50" relative="1" as="geometry">
            <mxPoint x="120" y="310" as="sourcePoint" />
            <mxPoint x="110" y="230" as="targetPoint" />
          </mxGeometry>
        </mxCell>
        <mxCell id="RzPd5jYL5kc_TmFL2Cuv-5" value="" style="shape=orEllipse;perimeter=ellipsePerimeter;whiteSpace=wrap;html=1;backgroundOutline=1;aspect=fixed;fontSize=15;" vertex="1" parent="1">
          <mxGeometry x="600" y="297.5" width="25" height="25" as="geometry" />
        </mxCell>
        <mxCell id="RzPd5jYL5kc_TmFL2Cuv-6" value="" style="endArrow=classic;html=1;rounded=0;entryX=0;entryY=0.5;entryDx=0;entryDy=0;exitX=1;exitY=0.5;exitDx=0;exitDy=0;fontSize=15;" edge="1" parent="1" source="RzPd5jYL5kc_TmFL2Cuv-2" target="RzPd5jYL5kc_TmFL2Cuv-5">
          <mxGeometry width="50" height="50" relative="1" as="geometry">
            <mxPoint x="80" y="320" as="sourcePoint" />
            <mxPoint x="190" y="320" as="targetPoint" />
          </mxGeometry>
        </mxCell>
        <mxCell id="RzPd5jYL5kc_TmFL2Cuv-7" value="" style="endArrow=classic;html=1;rounded=0;exitX=1;exitY=0.5;exitDx=0;exitDy=0;entryX=0;entryY=0.5;entryDx=0;entryDy=0;fontSize=15;" edge="1" parent="1" source="RzPd5jYL5kc_TmFL2Cuv-5" target="RzPd5jYL5kc_TmFL2Cuv-20">
          <mxGeometry width="50" height="50" relative="1" as="geometry">
            <mxPoint x="700" y="296.81" as="sourcePoint" />
            <mxPoint x="670" y="310" as="targetPoint" />
          </mxGeometry>
        </mxCell>
        <mxCell id="RzPd5jYL5kc_TmFL2Cuv-9" value="$$\text{relu}(x)$$" style="text;html=1;align=center;verticalAlign=middle;whiteSpace=wrap;rounded=0;fontSize=15;" vertex="1" parent="1">
          <mxGeometry x="340" y="295" width="60" height="30" as="geometry" />
        </mxCell>
        <mxCell id="RzPd5jYL5kc_TmFL2Cuv-10" value="$$x$$" style="text;html=1;align=center;verticalAlign=middle;whiteSpace=wrap;rounded=0;fontSize=15;" vertex="1" parent="1">
          <mxGeometry x="100" y="280" width="60" height="30" as="geometry" />
        </mxCell>
        <mxCell id="RzPd5jYL5kc_TmFL2Cuv-12" value="" style="curved=1;endArrow=classic;html=1;rounded=0;entryX=0.5;entryY=0;entryDx=0;entryDy=0;fontSize=15;" edge="1" parent="1" target="RzPd5jYL5kc_TmFL2Cuv-5">
          <mxGeometry width="50" height="50" relative="1" as="geometry">
            <mxPoint x="150" y="310" as="sourcePoint" />
            <mxPoint x="260" y="150" as="targetPoint" />
            <Array as="points">
              <mxPoint x="210" y="200" />
              <mxPoint x="550" y="200" />
            </Array>
          </mxGeometry>
        </mxCell>
        <mxCell id="RzPd5jYL5kc_TmFL2Cuv-13" value="" style="endArrow=classic;html=1;rounded=0;exitX=1;exitY=0.5;exitDx=0;exitDy=0;entryX=0;entryY=0.5;entryDx=0;entryDy=0;fontSize=15;" edge="1" parent="1" source="RzPd5jYL5kc_TmFL2Cuv-1" target="RzPd5jYL5kc_TmFL2Cuv-9">
          <mxGeometry width="50" height="50" relative="1" as="geometry">
            <mxPoint x="290" y="450" as="sourcePoint" />
            <mxPoint x="340" y="400" as="targetPoint" />
          </mxGeometry>
        </mxCell>
        <mxCell id="RzPd5jYL5kc_TmFL2Cuv-14" value="" style="endArrow=classic;html=1;rounded=0;exitX=1;exitY=0.5;exitDx=0;exitDy=0;entryX=0;entryY=0.5;entryDx=0;entryDy=0;fontSize=15;" edge="1" parent="1" source="RzPd5jYL5kc_TmFL2Cuv-9" target="RzPd5jYL5kc_TmFL2Cuv-2">
          <mxGeometry width="50" height="50" relative="1" as="geometry">
            <mxPoint x="390" y="360" as="sourcePoint" />
            <mxPoint x="440" y="363" as="targetPoint" />
          </mxGeometry>
        </mxCell>
        <mxCell id="RzPd5jYL5kc_TmFL2Cuv-16" value="" style="shape=curlyBracket;whiteSpace=wrap;html=1;rounded=1;flipH=1;labelPosition=right;verticalLabelPosition=middle;align=left;verticalAlign=middle;rotation=90;fontSize=15;" vertex="1" parent="1">
          <mxGeometry x="360.57" y="177.19" width="20" height="360.63" as="geometry" />
        </mxCell>
        <mxCell id="RzPd5jYL5kc_TmFL2Cuv-17" value="$$f(x)$$" style="text;html=1;align=center;verticalAlign=middle;whiteSpace=wrap;rounded=0;fontSize=15;" vertex="1" parent="1">
          <mxGeometry x="341" y="370" width="60" height="30" as="geometry" />
        </mxCell>
        <mxCell id="RzPd5jYL5kc_TmFL2Cuv-18" value="$$x$$" style="text;html=1;align=center;verticalAlign=middle;whiteSpace=wrap;rounded=0;fontSize=15;" vertex="1" parent="1">
          <mxGeometry x="341" y="160" width="60" height="30" as="geometry" />
        </mxCell>
        <mxCell id="RzPd5jYL5kc_TmFL2Cuv-19" value="$$f(x)+x$$" style="text;html=1;align=center;verticalAlign=middle;whiteSpace=wrap;rounded=0;fontSize=15;" vertex="1" parent="1">
          <mxGeometry x="582.5" y="330" width="60" height="30" as="geometry" />
        </mxCell>
        <mxCell id="RzPd5jYL5kc_TmFL2Cuv-20" value="$$\text{relu}(f(x)+x)$$" style="text;html=1;align=center;verticalAlign=middle;whiteSpace=wrap;rounded=0;fontSize=15;" vertex="1" parent="1">
          <mxGeometry x="680" y="295" width="120" height="30" as="geometry" />
        </mxCell>
        <mxCell id="RzPd5jYL5kc_TmFL2Cuv-21" value="skip connection" style="text;html=1;align=center;verticalAlign=middle;whiteSpace=wrap;rounded=0;fontSize=15;" vertex="1" parent="1">
          <mxGeometry x="305.82" y="210" width="129.5" height="30" as="geometry" />
        </mxCell>
      </root>
    </mxGraphModel>
  </diagram>
</mxfile>
